<?xml version="1.0" standalone="no"?>
<!DOCTYPE svg PUBLIC "-//W3C//DTD SVG 20010904//EN"
 "http://www.w3.org/TR/2001/REC-SVG-20010904/DTD/svg10.dtd">
<svg version="1.0" xmlns="http://www.w3.org/2000/svg"
 width="192.000000pt" height="192.000000pt" viewBox="0 0 192.000000 192.000000"
 preserveAspectRatio="xMidYMid meet">
<metadata>
Created by potrace 1.11, written by Peter Selinger 2001-2013
</metadata>
<g transform="translate(0.000000,192.000000) scale(0.100000,-0.100000)"
fill="#000000" stroke="none">
<path d="M937 1844 c-1 -1 -34 -5 -73 -8 -39 -4 -86 -11 -105 -17 -19 -5 -45
-12 -59 -15 -45 -9 -191 -83 -253 -128 -34 -24 -87 -71 -118 -103 -53 -54
-129 -155 -129 -170 0 -3 -6 -14 -13 -22 -7 -9 -21 -36 -31 -61 -10 -25 -23
-54 -28 -65 -5 -12 -11 -30 -13 -40 -2 -11 -4 -20 -6 -20 -1 0 -3 -9 -4 -20
-2 -11 -8 -44 -14 -74 -6 -29 -8 -57 -5 -62 3 -5 2 -9 -3 -9 -9 0 -8 -97 3
-178 4 -31 8 -67 8 -79 1 -13 4 -23 9 -23 4 0 7 -11 7 -24 0 -14 5 -28 10 -31
6 -3 10 -15 10 -27 0 -29 97 -218 112 -218 4 0 8 -5 8 -10 0 -6 12 -24 28 -41
15 -17 26 -36 24 -41 -1 -5 1 -7 6 -4 5 3 23 -11 41 -29 18 -19 37 -35 42 -35
6 0 8 -4 5 -9 -3 -4 6 -13 20 -20 15 -7 22 -16 18 -23 -5 -7 -2 -9 7 -6 8 3
34 -7 57 -23 44 -30 145 -79 163 -79 6 0 8 -3 6 -8 -3 -4 9 -7 26 -6 18 0 40
-4 50 -9 26 -12 137 -29 197 -30 47 0 204 15 223 22 12 4 28 6 36 3 9 -3 11 0
6 8 -6 10 -2 12 13 8 13 -4 22 -1 22 5 0 6 3 7 7 4 3 -4 12 -2 20 4 7 6 13 8
13 4 0 -5 9 0 20 10 11 10 20 15 20 10 0 -4 7 -2 15 5 8 6 20 8 26 4 7 -4 9
-3 5 4 -3 6 4 14 16 18 13 4 24 5 25 3 2 -2 10 6 19 19 10 15 22 21 32 17 9
-3 13 -3 9 1 -4 4 12 21 36 38 23 17 50 41 60 53 10 12 23 21 30 19 7 -1 8 -1
4 2 -4 2 7 21 25 41 61 70 83 97 85 107 2 5 9 16 16 24 7 8 13 19 14 23 4 21
29 67 36 67 5 0 6 4 3 9 -3 5 1 21 9 37 7 16 16 41 19 56 2 15 8 33 12 40 8
13 15 55 17 106 1 17 4 32 7 32 10 0 -2 199 -15 255 -41 178 -109 306 -229
433 -140 148 -337 247 -532 267 -89 9 -124 12 -127 9z"/>
<path d="M355 289 c-4 -6 -5 -12 -2 -15 2 -3 7 2 10 11 7 17 1 20 -8 4z"/>
<path d="M715 91 c-3 -5 -2 -12 3 -15 5 -3 9 1 9 9 0 17 -3 19 -12 6z"/>
<path d="M890 66 c0 -2 7 -7 16 -10 8 -3 12 -2 9 4 -6 10 -25 14 -25 6z"/>
</g>
</svg>
